<svg width="32" height="32" viewBox="0 0 32 32" fill="none" xmlns="http://www.w3.org/2000/svg">
<rect width="32" height="32" fill="#1E1E1E"/>
<path d="M12.299 8.18182V9.46023H7.21094V8.18182H12.299ZM8.69389 5.82955H10.2024V15.1875C10.2024 15.6136 10.2642 15.9332 10.3878 16.1463C10.5156 16.3551 10.6776 16.4957 10.8736 16.5682C11.0739 16.6364 11.2848 16.6705 11.5064 16.6705C11.6726 16.6705 11.8089 16.6619 11.9155 16.6449C12.022 16.6236 12.1072 16.6065 12.1712 16.5938L12.478 17.9489C12.3757 17.9872 12.233 18.0256 12.0497 18.0639C11.8665 18.1065 11.6342 18.1278 11.353 18.1278C10.9268 18.1278 10.5092 18.0362 10.1001 17.853C9.69531 17.6697 9.35866 17.3906 9.0902 17.0156C8.82599 16.6406 8.69389 16.1676 8.69389 15.5966V5.82955ZM15.3097 18H13.6477L18.4545 4.90909H20.0909L24.8977 18H23.2358L19.3239 6.98011H19.2216L15.3097 18ZM15.9233 12.8864H22.6222V14.2926H15.9233V12.8864Z" fill="white"/>
<path d="M6.64844 21.5795H25.358V22.8068H6.64844V21.5795Z" fill="white"/>
<path d="M24 4.5C24 5.32843 23.3284 6 22.5 6C21.6716 6 21 5.32843 21 4.5C21 3.67157 21.6716 3 22.5 3C23.3284 3 24 3.67157 24 4.5ZM22.3265 5.29424L23.4394 4.18133C23.4772 4.14354 23.4772 4.08227 23.4394 4.04448L23.3025 3.90762C23.2648 3.86982 23.2035 3.86982 23.1657 3.90762L22.2581 4.81523L21.8343 4.39149C21.7965 4.3537 21.7353 4.3537 21.6975 4.39149L21.5606 4.52834C21.5228 4.56613 21.5228 4.62741 21.5606 4.6652L22.1896 5.29423C22.2274 5.33203 22.2887 5.33203 22.3265 5.29424Z" fill="#D4C321"/>
</svg>
